<svg xmlns="http://www.w3.org/2000/svg" viewBox="0 0 64 64">
  <defs>
    <linearGradient id="shieldGrad" x1="0" y1="0" x2="1" y2="1">
      <stop offset="0%" stop-color="#6c63ff"/>
      <stop offset="100%" stop-color="#3b82f6"/>
    </linearGradient>
    <linearGradient id="brainGrad" x1="0" y1="0" x2="1" y2="1">
      <stop offset="0%" stop-color="#67e8f9"/>
      <stop offset="100%" stop-color="#60a5fa"/>
    </linearGradient>
  </defs>
  <!-- Shield shape -->
  <path d="M32 4 L8 16 L8 34 C8 48 32 60 32 60 C32 60 56 48 56 34 L56 16 Z" fill="#1a1a3e" stroke="url(#shieldGrad)" stroke-width="3" stroke-linejoin="round"/>
  <!-- Brain silhouette -->
  <g transform="translate(32,33)" fill="none" stroke="url(#brainGrad)" stroke-width="2.5" stroke-linecap="round" stroke-linejoin="round">
    <!-- Left hemisphere -->
    <path d="M-2,-12 C-8,-12 -13,-8 -13,-2 C-15,-1 -16,2 -15,5 C-16,8 -14,11 -11,12 C-9,14 -5,14 -2,12"/>
    <!-- Right hemisphere -->
    <path d="M2,-12 C8,-12 13,-8 13,-2 C15,-1 16,2 15,5 C16,8 14,11 11,12 C9,14 5,14 2,12"/>
    <!-- Center line -->
    <line x1="0" y1="-12" x2="0" y2="12"/>
    <!-- Folds -->
    <path d="M-8,-4 C-5,-2 -3,-5 0,-3"/>
    <path d="M8,-4 C5,-2 3,-5 0,-3"/>
    <path d="M-10,5 C-7,3 -4,6 0,4"/>
    <path d="M10,5 C7,3 4,6 0,4"/>
  </g>
</svg>
